# xmcd
#
# Track frame offsets: 
#        150
#        15799
#        32600
#        50596
#        66613
#        83931
#        103271
#        120240
#        136685
#        153243
#        169279
#        185688
#        199350
#        213950
#        228095
#        243337
#        259354
#        275440
#        303644
#        319343
#
# Disc length: 4475 seconds
#
# Revision: 2
# Processed by: cddbd v1.5.2PL0 Copyright (c) Steve Scherf et al.
# Submitted via: ExactAudioCopy v1.1
#
DISCID=1c117914
DTITLE=Various Artist - Trance Maniaxx Vol. 1 - CD 2
DYEAR=2002
DGENRE=Trance
TTITLE0=Jan Wayne - Only You
TTITLE1=Nightwatchers - Insomnia
TTITLE2=Moguai - U Know Y (Original Radio)
TTITLE3=Kenny Takito - Moskito (Japanese Sunrise Radio Edit)
TTITLE4=BBE - Free (Radio Edit)
TTITLE5=Potatoheads - I Wanna Rock (This Place)
TTITLE6=Cosmic Gate - Back To Earth (Video Mix)
TTITLE7=Schwarze Puppen feat. Nina Hagen - Tanz! (Airplay Mix)
TTITLE8=DJ Bart - The Message
TTITLE9=DJ BoozyWoozy - Jumpin' Around
TTITLE10=Megara vs. DJ Lee - Full Intention
TTITLE11=Drax - Amphetamine 2002 Rework, Edit
TTITLE12=Space Frog feat. The Grim Reaper - (X-Ray) Follow Me 2002 (Di
TTITLE12=rector's Cut Edit)
TTITLE13=Avancada - Money For Nothing (Overdrive) (Radio Cut)
TTITLE14=Beam vs. Cyrus - All Over The World (Video Mix)
TTITLE15=SQ-1 - Balare
TTITLE16=Nalin Inc. - African Harvest (Radio Edit)
TTITLE17=Brooklyn Bounce - Loud and Proud (Ironbase Remix)
TTITLE18=Ravers On Dope - Get High
TTITLE19=DJ Nordkurve - Wahnsinn! (Single Edit)
EXTD=Vol.1
EXTT0=
EXTT1=
EXTT2=
EXTT3=
EXTT4=
EXTT5=
EXTT6=
EXTT7=
EXTT8=
EXTT9=
EXTT10=
EXTT11=
EXTT12=
EXTT13=
EXTT14=
EXTT15=
EXTT16=
EXTT17=
EXTT18=
EXTT19=
PLAYORDER=
